<?xml version="1.0" encoding="UTF-8"?>
<svg id="Layer_1" data-name="Layer 1" xmlns="http://www.w3.org/2000/svg" viewBox="0 0 60 60">
  <defs>
    <style>
      .cls-1 {
        fill: #333;
        stroke-width: 0px;
      }
    </style>
  </defs>
  <path class="cls-1" d="m13.428,29.979v.047c0,3.884,1.361,7.625,3.848,10.604,1.304-2.025,5.894-8.355,13.771-10.901.055-.019.11-.036.166-.055-.298-.655-.624-1.336-.975-2.032-7.459,2.168-14.658,2.338-16.713,2.338h-.098Z"/>
  <path class="cls-1" d="m28.36,24.159c-2.446-4.282-4.957-7.849-5.756-8.96-4.337,2.172-7.542,6.182-8.697,10.866,2.051-.018,7.849-.228,14.453-1.906Z"/>
  <path class="cls-1" d="m39.76,32.197c-.993,0-1.97.062-2.912.186,1.786,5.027,2.675,9.199,3.005,10.957,3.358-2.494,5.675-6.186,6.437-10.278-.956-.266-3.449-.865-6.53-.865Z"/>
  <path class="cls-1" d="m26.812,13.763c.996,1.377,3.444,4.874,5.767,9.085,4.837-1.898,7.296-4.538,8.075-5.503-2.985-2.512-6.751-3.891-10.654-3.891-1.074,0-2.144.104-3.187.309Z"/>
  <path class="cls-1" d="m43.188,20.006c-1.021,1.21-3.786,4.03-8.875,6.204.331.693.641,1.378.925,2.042.078.186.156.371.233.556,1.144-.129,2.363-.194,3.628-.194,3.335,0,6.193.445,7.454.677-.151-3.354-1.332-6.611-3.365-9.284Z"/>
  <path class="cls-1" d="m36.129,45.421c-.323-1.789-1.294-6.497-3.386-12.036-8.271,2.986-11.761,8.426-12.603,9.951,2.869,2.135,6.27,3.261,9.86,3.261,2.121,0,4.181-.396,6.129-1.176Z"/>
  <path class="cls-1" d="m30,3.675C15.484,3.675,3.675,15.484,3.675,30s11.81,26.325,26.325,26.325,26.324-11.81,26.324-26.325S44.516,3.675,30,3.675Zm0,46.746c-11.26,0-20.421-9.161-20.421-20.422S18.74,9.579,30,9.579s20.42,9.16,20.42,20.42-9.16,20.422-20.42,20.422Z"/>
</svg>