<?xml version="1.0" encoding="UTF-8"?>
<svg id="Layer_1" data-name="Layer 1" xmlns="http://www.w3.org/2000/svg" viewBox="0 0 60 60">
  <defs>
    <style>
      .cls-1 {
        fill: #333;
        stroke-width: 0px;
      }
    </style>
  </defs>
  <path class="cls-1" d="m22.985,34.529v.97c0,1.752,1.455,2.672,3.743,2.672,2.527,0,7.377-1.281,7.377-3.62v-3.012l-6.697.022c-2.867,0-4.424,1.021-4.424,2.968Z"/>
  <path class="cls-1" d="m30,3.675C15.461,3.675,3.675,15.461,3.675,30s11.786,26.325,26.325,26.325,26.325-11.786,26.325-26.325S44.539,3.675,30,3.675Zm14.067,38.687h-4.134c-2.961,0-4.909-1.607-5.198-4.424h-.246c-1.723,4.467-6.646,5.003-10.483,5.003-4.858,0-8.073-2.766-8.073-7.486,0-5.249,3.938-7.725,11.28-7.725h6.907v-.557c-.094-2.961-1.499-4.554-4.221-4.554-2.252,0-4.424,1.187-4.424,3.62v.434h-7.24v-9.412h7.24v4.952h.275c1.115-2.824,3.352-5.155,7.392-5.155,4.807,0,8.167,3.33,8.167,9.412v10.223l2.758.08v5.589Z"/>
</svg>