<?xml version="1.0" encoding="UTF-8"?>
<svg id="Layer_1" data-name="Layer 1" xmlns="http://www.w3.org/2000/svg" viewBox="0 0 60 60">
  <defs>
    <style>
      .cls-1 {
        fill: #333;
      }

      .cls-1, .cls-2 {
        stroke-width: 0px;
      }

      .cls-2 {
        fill: #fff;
      }
    </style>
  </defs>
  <path class="cls-1" d="m30,3.675C15.461,3.675,3.675,15.461,3.675,30s11.786,26.325,26.325,26.325,26.325-11.786,26.325-26.325S44.539,3.675,30,3.675Z"/>
  <g>
    <rect class="cls-2" x="18.054" y="24.675" width="5.77" height="17.358"/>
    <path class="cls-2" d="m20.978,16.307c-1.974,0-3.266,1.296-3.266,2.999,0,1.666,1.254,3.001,3.19,3.001h.039c2.012,0,3.264-1.335,3.264-3.001-.038-1.703-1.252-2.999-3.227-2.999Z"/>
    <path class="cls-2" d="m37.989,24.267c-3.065,0-4.435,1.687-5.201,2.868v.056h-.037c.011-.018.026-.038.037-.056v-2.46h-5.771c.077,1.629,0,17.358,0,17.358h5.771v-9.694c0-.52.039-1.036.191-1.407.418-1.038,1.367-2.111,2.961-2.111,2.088,0,2.924,1.592,2.924,3.925v9.287h5.77v-9.953c0-5.332-2.846-7.813-6.645-7.813Z"/>
  </g>
</svg>