<?xml version="1.0" encoding="UTF-8"?>
<svg id="Layer_1" data-name="Layer 1" xmlns="http://www.w3.org/2000/svg" viewBox="0 0 60 60">
  <defs>
    <style>
      .cls-1 {
        fill: #333;
        stroke-width: 0px;
      }
    </style>
  </defs>
  <path class="cls-1" d="m23.379,30.881h-4.819v5.907h4.767v.052c.466,0,.881-.052,1.244-.155.415-.104.777-.259,1.036-.466.311-.207.57-.466.726-.829.207-.363.259-.829.259-1.399,0-1.088-.311-1.865-.881-2.384-.57-.466-1.399-.725-2.332-.725Z"/>
  <path class="cls-1" d="m39.909,27.772c-.674,0-1.192.104-1.606.363-.415.207-.777.518-1.036.829-.259.363-.415.725-.518,1.088-.104.363-.156.725-.207,1.036h6.581c-.104-1.088-.466-1.865-.933-2.435s-1.295-.881-2.28-.881Z"/>
  <path class="cls-1" d="m25.038,27.15c.518-.415.777-1.036.777-1.917,0-.518-.104-.933-.259-1.244s-.415-.57-.674-.725c-.311-.207-.622-.311-.985-.363s-.777-.104-1.14-.104h-4.197v4.975h4.508c.777,0,1.451-.207,1.969-.622Z"/>
  <path class="cls-1" d="m30,3.675C15.461,3.675,3.675,15.461,3.675,30s11.786,26.325,26.325,26.325,26.325-11.786,26.325-26.325S44.539,3.675,30,3.675Zm5.712,16.894h8.291v2.125h-8.291v-2.125Zm-5.078,16.426c-.415.777-.933,1.451-1.606,1.917-.674.518-1.451.881-2.332,1.088-.881.259-1.762.363-2.643.363h-10.001v-21.246h9.638c.985,0,1.865.104,2.643.259.777.155,1.503.466,2.073.881.57.415,1.036.933,1.347,1.606.311.674.466,1.503.466,2.487,0,1.088-.207,1.969-.674,2.695-.466.725-1.14,1.295-2.073,1.762,1.244.363,2.177,1.036,2.798,1.969s.933,2.073.933,3.42c0,1.088-.207,2.021-.57,2.798Zm16.478-3.161h-10.571c0,1.14.363,2.332.984,2.954.622.622,1.503.933,2.643.933.829,0,1.503-.207,2.125-.674.57-.415.933-.881,1.088-1.347h3.575c-.57,1.865-1.451,3.213-2.643,3.99-1.192.829-2.591,1.192-4.301,1.192-1.14,0-2.228-.207-3.161-.57-.933-.415-1.71-.933-2.384-1.658-.622-.725-1.14-1.555-1.503-2.591-.363-.985-.518-2.125-.518-3.316,0-1.14.207-2.228.57-3.213.363-.985.881-1.865,1.554-2.591.674-.725,1.451-1.295,2.384-1.71.933-.415,1.969-.622,3.057-.622,1.244,0,2.332.259,3.265.777.933.518,1.71,1.192,2.28,2.073.622.881,1.036,1.814,1.296,2.954.259,1.088.363,2.228.259,3.42Z"/>
</svg>